<svg width="52" height="42.8" viewBox="0 0 52.3 42.8" xmlns="http://www.w3.org/2000/svg"><style>.st0{fill:#fff}</style><path class="st0" d="M40 36.9c-1.2 0-2.4-.3-3.4-.8v6.7h5.7c2.9 0 5.2-2.3 5.2-5.2v-5c-1.6 2.6-4.3 4.3-7.5 4.3zm-9.3-3.5V21c-1.7 2.3-4 5.4-4.6 6.2.6.8 2.8 3.8 4.6 6.2z"/><path class="st0" d="M42.3 0H5.2C2.3 0 0 2.3 0 5.2v32.4c0 2.9 2.3 5.2 5.2 5.2h25.5v-6.2H26s-2.3-3.1-3.3-4.6c-1.1 1.5-3.3 4.6-3.3 4.6h-7s6-8.1 6.9-9.4c-.9-1.3-6.5-8.9-6.5-8.9h7s2 2.7 3 4.1c1-1.4 3-4.1 3-4.1H34s.6 1.1.8 1.6c1.5-1.2 3.4-1.9 5.3-1.9 3.1 0 5.9 1.7 7.5 4.3V5.2C47.5 2.3 45.2 0 42.3 0z"/><path class="st0" d="M42.9 27.5c0-2.1-1.4-3.8-3.1-3.8-1.8 0-3.2 1.7-3.2 3.8s1.4 3.8 3.2 3.8c1.7 0 3.1-1.7 3.1-3.8z"/></svg>